<svg width="38" height="30" viewBox="0 0 38 30" fill="none" xmlns="http://www.w3.org/2000/svg">
<path d="M8.08734 24.572L8.30334 18.452C5.99934 18.164 4.06734 17.384 2.50734 16.112C0.947344 14.84 0.167344 13.136 0.167344 11C0.167344 9.248 1.03134 7.556 2.75934 5.924C4.48734 4.268 6.55134 3.44 8.95134 3.44C12.4793 3.44 14.2433 5.732 14.2433 10.316C14.2433 11.66 14.1473 13.724 13.9553 16.508C13.7873 19.268 13.7033 21.356 13.7033 22.772C13.7033 24.188 14.0873 24.896 14.8553 24.896C15.3113 24.896 15.9713 24.512 16.8353 23.744C17.7233 22.952 18.4673 22.1 19.0673 21.188C19.5953 15.764 19.8593 12.524 19.8593 11.468C19.8593 10.412 19.8473 9.692 19.8233 9.308C19.8233 8.924 19.7993 8.552 19.7513 8.192C19.7273 7.832 19.7033 7.568 19.6793 7.4C19.6793 7.208 19.6313 6.956 19.5353 6.644C19.4633 6.332 19.4153 6.152 19.3913 6.104C19.3913 6.056 19.3313 5.852 19.2113 5.492C19.1153 5.132 19.0673 4.94 19.0673 4.916C20.2913 4.268 22.2953 3.776 25.0793 3.44V3.476C25.3433 4.316 25.4753 5.528 25.4753 7.112C25.4753 8.672 25.2353 11.396 24.7553 15.284C24.2753 19.172 24.0353 21.752 24.0353 23.024C24.0353 24.272 24.3953 24.896 25.1153 24.896C25.8593 24.896 26.7473 24.248 27.7793 22.952C28.8353 21.656 29.7953 19.964 30.6593 17.876C31.5473 15.788 32.0993 13.76 32.3153 11.792C32.3153 9.848 31.2953 7.604 29.2553 5.06C29.7353 4.028 30.3593 3.104 31.1273 2.288C31.8953 1.448 32.5433 0.872 33.0713 0.559999L33.8633 0.0559993C34.7513 0.0559993 35.5073 0.691999 36.1313 1.964C36.7793 3.212 37.1033 4.688 37.1033 6.392C37.1033 8.072 36.6473 10.244 35.7353 12.908C34.8233 15.548 33.6713 18.092 32.2793 20.54C30.9113 22.988 29.2913 25.088 27.4193 26.84C25.5713 28.568 23.8073 29.432 22.1273 29.432C21.2633 29.432 20.5073 29 19.8593 28.136C19.2113 27.272 18.8753 26.168 18.8513 24.824C17.8193 26.264 16.7273 27.392 15.5753 28.208C14.4233 29.024 13.2713 29.432 12.1193 29.432C10.9673 29.432 10.0073 28.964 9.23934 28.028C8.47134 27.092 8.08734 25.94 8.08734 24.572ZM8.62734 10.388C8.62734 8.9 8.48334 7.892 8.19534 7.364C7.93134 6.812 7.40334 6.536 6.61134 6.536C5.84334 6.536 4.94334 6.968 3.91134 7.832C2.90334 8.696 2.39934 9.824 2.39934 11.216C2.39934 12.608 2.99934 13.76 4.19934 14.672C5.42334 15.584 6.83934 16.04 8.44734 16.04C8.56734 13.76 8.62734 11.876 8.62734 10.388Z" fill="black"/>
</svg>
